<?xml version="1.0" standalone="no"?>
<!DOCTYPE svg PUBLIC "-//W3C//DTD SVG 20010904//EN"
 "http://www.w3.org/TR/2001/REC-SVG-20010904/DTD/svg10.dtd">
<svg version="1.0" xmlns="http://www.w3.org/2000/svg"
 width="4008.000000pt" height="4008.000000pt" viewBox="0 0 4008.000000 4008.000000"
 preserveAspectRatio="xMidYMid meet">
<metadata>
Created by potrace 1.11, written by Peter Selinger 2001-2013
</metadata>
<g transform="translate(0.000000,4008.000000) scale(0.100000,-0.100000)"
fill="#000000" stroke="none">
<path d="M10530 35610 c0 -2668 -1 -2811 -17 -2817 -85 -29 -464 -179 -608
-240 -591 -247 -1253 -575 -1804 -892 -1578 -910 -2712 -1943 -3348 -3051
-134 -234 -251 -486 -360 -777 l-46 -123 -203 0 -204 0 0 -100 0 -100 45 0 45
0 0 -85 0 -85 40 0 40 0 0 -85 0 -85 46 0 c39 0 45 -3 40 -17 -11 -28 -54
-305 -72 -460 -22 -189 -25 -747 -6 -933 31 -298 94 -643 162 -883 35 -125 34
-117 15 -117 -13 0 -15 -34 -15 -250 l0 -250 40 0 40 0 0 -375 0 -375 45 0 45
0 0 -210 0 -210 40 0 40 0 0 -165 0 -165 40 0 40 0 0 -125 0 -125 45 0 45 0 0
-125 0 -125 40 0 40 0 0 -125 0 -125 40 0 40 0 0 -85 0 -85 45 0 45 0 0 -85 0
-85 40 0 40 0 0 -80 0 -80 40 0 40 0 0 -85 0 -85 45 0 45 0 0 -85 0 -85 40 0
40 0 0 -40 0 -40 40 0 40 0 0 -85 0 -85 45 0 45 0 0 -40 0 -40 40 0 40 0 0
-85 0 -85 40 0 40 0 0 -40 0 -40 45 0 45 0 0 -40 0 -40 40 0 40 0 0 -85 0 -85
40 0 40 0 0 -40 0 -40 45 0 45 0 0 -45 0 -45 40 0 40 0 0 -40 0 -40 40 0 40 0
0 -40 0 -40 45 0 45 0 0 -45 0 -45 40 0 40 0 0 -40 0 -40 40 0 40 0 0 -40 0
-40 45 0 45 0 0 -45 0 -45 40 0 40 0 0 -40 0 -40 40 0 40 0 0 -40 0 -40 45 0
45 0 0 -45 0 -45 40 0 40 0 0 -40 0 -40 40 0 40 0 0 -40 0 -40 45 0 45 0 0
-45 0 -45 40 0 40 0 0 -40 0 -40 40 0 40 0 0 -40 0 -40 45 0 45 0 0 -45 0 -45
40 0 40 0 0 -40 0 -40 40 0 40 0 0 -40 0 -40 45 0 45 0 0 -45 0 -45 80 0 80 0
0 -40 0 -40 45 0 45 0 0 -40 0 -40 40 0 40 0 0 -45 0 -45 40 0 40 0 0 -40 0
-40 45 0 45 0 0 -40 0 -40 40 0 40 0 0 -45 0 -45 40 0 40 0 0 -40 0 -40 45 0
45 0 0 -40 0 -40 40 0 40 0 0 -45 0 -45 85 0 85 0 0 -40 0 -40 40 0 40 0 0
-40 0 -40 40 0 40 0 0 -45 0 -45 45 0 45 0 0 -40 0 -40 40 0 40 0 0 -40 0 -40
40 0 40 0 0 -85 0 -85 45 0 45 0 0 -40 0 -40 40 0 40 0 0 -45 0 -45 40 0 40 0
0 -40 0 -40 45 0 45 0 0 -85 0 -85 40 0 40 0 0 -40 0 -40 40 0 40 0 0 -85 0
-85 45 0 45 0 0 -80 0 -80 31 0 c29 0 31 -2 24 -27 -13 -53 -118 -318 -177
-448 -155 -338 -401 -753 -666 -1117 l-86 -118 -2190 0 c-1205 0 -2248 -3
-2318 -7 l-128 -6 0 -99 0 -98 45 0 45 0 0 -85 0 -85 40 0 40 0 0 -40 0 -40
40 0 40 0 0 -40 0 -40 45 0 45 0 0 -45 0 -45 40 0 40 0 0 -40 0 -40 85 0 85 0
0 -40 0 -40 165 0 165 0 0 -45 0 -45 1486 0 1486 0 -40 -47 c-232 -277 -942
-959 -1512 -1453 -747 -647 -1743 -1410 -2433 -1865 -91 -60 -166 -114 -166
-120 0 -5 173 -251 384 -545 212 -294 385 -538 385 -542 0 -5 -20 -8 -45 -8
l-45 0 0 -125 0 -125 -40 0 -40 0 0 -500 0 -500 40 0 40 0 0 -165 0 -165 45 0
45 0 0 -85 0 -85 40 0 40 0 0 -125 0 -125 40 0 40 0 0 -85 0 -85 45 0 45 0 0
-40 0 -40 40 0 40 0 0 -85 0 -85 40 0 40 0 0 -80 0 -80 45 0 45 0 0 -45 0 -45
40 0 40 0 0 -40 0 -40 40 0 40 0 0 -85 0 -85 45 0 45 0 0 -40 0 -40 40 0 40 0
0 -40 0 -40 40 0 40 0 0 -85 0 -85 45 0 45 0 0 -40 0 -40 40 0 40 0 0 -45 0
-45 40 0 40 0 0 -40 0 -40 45 0 45 0 0 -40 0 -40 40 0 40 0 0 -45 0 -45 85 0
85 0 0 -40 0 -40 40 0 40 0 0 -40 0 -40 40 0 40 0 0 -45 0 -45 85 0 85 0 0
-40 0 -40 85 0 85 0 0 -40 0 -40 125 0 125 0 0 -45 0 -45 250 0 250 0 0 -40 0
-40 205 0 205 0 0 40 0 40 250 0 250 0 0 45 0 45 125 0 125 0 0 40 0 40 85 0
85 0 0 40 0 40 85 0 85 0 0 45 0 45 80 0 80 0 0 40 0 40 85 0 85 0 0 40 0 40
40 0 40 0 0 45 0 45 85 0 85 0 0 40 0 40 40 0 40 0 0 40 0 40 85 0 85 0 0 45
0 45 40 0 40 0 0 40 0 40 85 0 85 0 0 40 0 40 40 0 40 0 0 45 0 45 45 0 45 0
0 40 0 40 80 0 80 0 0 790 0 790 45 0 45 0 0 45 0 45 80 0 80 0 0 40 0 40 45
0 45 0 0 40 c0 39 1 40 34 40 l34 0 7 -412 c3 -227 5 -1484 3 -2793 -3 -2242
-4 -2383 -21 -2440 -50 -171 -131 -310 -239 -411 -110 -102 -209 -159 -361
-207 l-72 -22 -2947 -3 -2948 -2 0 -105 0 -105 45 0 45 0 0 -80 0 -80 40 0 40
0 0 -45 0 -45 40 0 40 0 0 -40 0 -40 45 0 45 0 0 -40 0 -40 40 0 40 0 0 -45 0
-45 85 0 85 0 0 -40 0 -40 165 0 165 0 0 -40 0 -40 2750 0 2750 0 0 40 0 40
165 0 165 0 0 40 0 40 85 0 85 0 0 45 0 45 40 0 40 0 0 40 0 40 45 0 45 0 0
40 0 40 40 0 40 0 0 45 0 45 40 0 40 0 0 80 0 80 45 0 45 0 0 125 0 125 40 0
40 0 0 2750 0 2750 40 0 40 0 0 274 c0 150 3 301 6 335 l7 61 38 0 39 0 0 210
0 210 40 0 40 0 0 125 0 125 40 0 40 0 0 58 c0 31 3 87 7 124 l6 68 32 0 c32
0 32 0 39 61 3 34 6 127 6 205 l0 144 40 0 40 0 0 45 0 45 45 0 45 0 0 40 0
40 40 0 40 0 0 40 0 40 40 0 40 0 0 85 0 85 38 0 39 0 6 -377 c4 -207 7 -562
7 -790 l0 -413 40 0 40 0 0 40 0 40 40 0 40 0 0 40 0 40 45 0 45 0 0 45 0 45
40 0 40 0 0 40 0 40 40 0 40 0 0 40 0 40 45 0 45 0 0 45 0 45 40 0 40 0 0 40
0 40 40 0 40 0 0 40 0 40 45 0 45 0 0 45 0 45 40 0 40 0 0 40 0 40 40 0 40 0
0 40 0 40 45 0 45 0 0 45 0 45 40 0 40 0 0 40 0 40 40 0 40 0 0 85 0 85 45 0
45 0 0 40 0 40 40 0 40 0 0 40 0 40 40 0 40 0 0 45 0 45 45 0 45 0 0 40 0 40
40 0 40 0 0 85 0 85 40 0 40 0 0 40 0 40 45 0 45 0 0 40 0 40 40 0 40 0 0 85
0 85 40 0 40 0 0 40 0 40 45 0 45 0 0 85 0 85 40 0 40 0 0 40 0 40 40 0 40 0
0 85 0 85 45 0 45 0 0 40 0 40 40 0 40 0 0 85 0 85 40 0 40 0 0 40 0 40 45 0
45 0 0 85 0 85 40 0 40 0 0 40 0 40 40 0 40 0 0 85 0 85 45 0 45 0 0 40 0 40
40 0 40 0 0 45 0 45 40 0 40 0 0 40 0 40 97 0 96 0 -7 -387 c-12 -696 -41
-1765 -76 -2848 -11 -330 -20 -691 -20 -802 l0 -203 128 -2 c70 -1 106 -3 80
-5 l-48 -4 0 -125 0 -124 45 0 45 0 0 -460 0 -460 40 0 40 0 0 -125 0 -125 40
0 40 0 0 -125 0 -125 45 0 45 0 0 -80 0 -80 40 0 40 0 0 -85 0 -85 40 0 40 0
0 -85 0 -85 45 0 45 0 0 -40 0 -40 40 0 40 0 0 -40 0 -40 40 0 40 0 0 -45 0
-45 45 0 45 0 0 -40 0 -40 80 0 80 0 0 -40 0 -40 85 0 85 0 0 -45 0 -45 85 0
85 0 0 -40 0 -40 80 0 80 0 0 -40 0 -40 750 0 750 0 0 40 0 40 170 0 170 0 0
40 0 40 80 0 80 0 0 585 0 585 45 0 45 0 0 40 0 40 159 0 159 0 7 -333 c3
-182 5 -989 3 -1792 -3 -1358 -5 -1464 -21 -1520 -50 -170 -131 -310 -239
-411 -110 -102 -209 -159 -361 -207 l-72 -22 -2947 -3 -2948 -2 0 -105 0 -105
45 0 45 0 0 -80 0 -80 40 0 40 0 0 -45 0 -45 40 0 40 0 0 -40 0 -40 45 0 45 0
0 -40 0 -40 40 0 40 0 0 -45 0 -45 85 0 85 0 0 -40 0 -40 165 0 165 0 0 -40 0
-40 2750 0 2750 0 0 40 0 40 165 0 165 0 0 40 0 40 85 0 85 0 0 45 0 45 40 0
40 0 0 40 0 40 45 0 45 0 0 40 0 40 40 0 40 0 0 45 0 45 40 0 40 0 0 80 0 80
45 0 45 0 0 125 0 125 40 0 40 0 0 1670 0 1670 40 0 40 0 0 183 c0 100 3 212
7 249 l6 68 38 0 39 0 0 80 0 80 40 0 40 0 0 85 0 85 39 0 39 0 7 85 7 85 33
0 c32 0 32 0 39 61 3 34 6 91 6 125 l0 64 85 0 85 0 0 40 0 40 119 0 119 0 7
-585 7 -585 124 0 124 0 0 45 0 45 205 0 205 0 0 40 0 40 295 0 295 0 0 40 0
40 330 0 330 0 0 45 0 45 1795 0 1795 0 0 40 0 40 205 0 205 0 0 40 0 40 125
0 125 0 0 45 0 45 85 0 85 0 0 40 0 40 85 0 85 0 0 40 0 40 40 0 40 0 0 45 0
45 40 0 40 0 0 2625 0 2625 -40 0 -40 0 0 40 0 40 -85 0 -85 0 0 40 0 40 -80
0 -80 0 0 45 0 45 -85 0 -85 0 0 40 0 40 -125 0 -125 0 0 40 0 40 -165 0 -165
0 0 45 0 45 -295 0 -295 0 0 40 0 40 -184 0 c-130 0 -185 3 -188 11 -7 22
-763 96 -1348 134 -598 38 -1402 60 -1787 49 l-243 -7 0 72 0 71 -40 0 -40 0
0 125 0 125 -40 0 -40 0 0 230 0 230 -318 0 c-251 0 -330 -3 -376 -15 -139
-36 -247 -141 -296 -284 -18 -55 -20 -85 -20 -331 l0 -270 -40 0 -40 0 0 55 0
55 -40 0 -40 0 0 790 0 790 40 0 40 0 0 45 0 45 -40 0 -40 0 0 40 0 40 40 0
40 0 0 210 0 210 40 0 39 0 4 -87 c1 -50 4 -15 5 80 l2 167 40 0 40 0 0 45 0
45 40 0 40 0 0 -45 0 -45 40 0 40 0 2 -127 c2 -107 3 -113 5 -40 l4 87 39 0
c40 0 40 0 40 -40 l0 -40 40 0 40 0 0 -45 0 -45 40 0 40 0 2 -82 c1 -46 3 -64
5 -41 4 43 4 43 44 43 39 0 39 0 39 -40 l0 -40 40 0 40 0 0 -45 0 -45 40 0 40
0 0 -40 0 -40 125 0 125 0 0 -40 0 -40 170 0 170 0 0 -45 0 -45 2790 0 2790 0
0 45 0 45 165 0 165 0 0 40 0 40 85 0 85 0 0 40 c0 40 0 40 39 40 l40 0 4 48
3 47 2 -47 2 -48 40 0 40 0 0 45 c0 45 0 45 35 45 19 0 35 -4 35 -9 0 -69 -53
-1017 -83 -1486 l-22 -340 -27 -3 c-27 -3 -28 -2 -28 42 l0 46 -40 0 -40 0 0
40 0 40 -125 0 -125 0 0 40 c0 40 0 40 -40 40 l-40 0 -2 -5042 c-3 -4796 -4
-5046 -21 -5103 -50 -171 -131 -310 -239 -411 -110 -102 -209 -159 -361 -207
l-72 -22 -2947 -3 -2948 -2 0 -105 0 -105 45 0 45 0 0 -80 0 -80 40 0 40 0 0
-45 0 -45 40 0 40 0 0 -40 0 -40 45 0 45 0 0 -40 0 -40 40 0 40 0 0 -45 0 -45
85 0 85 0 0 -40 0 -40 165 0 165 0 0 -40 0 -40 2750 0 2750 0 0 40 0 40 165 0
165 0 0 40 0 40 85 0 85 0 0 45 0 45 40 0 40 0 0 40 0 40 45 0 45 0 0 40 0 40
40 0 40 0 0 45 0 45 40 0 40 0 0 80 0 80 45 0 45 0 0 125 0 125 40 0 40 0 0
2295 0 2295 40 0 40 0 2 708 c2 389 4 614 5 499 l3 -207 40 0 40 0 0 576 0
577 193 -7 c105 -3 254 -9 330 -13 l137 -6 0 -776 c0 -427 3 -1056 7 -1398 l6
-623 39 0 c38 0 38 0 38 -40 l0 -40 125 0 125 0 0 -45 0 -45 125 0 125 0 0
-40 0 -40 210 0 210 0 0 -40 0 -40 415 0 415 0 0 -45 0 -45 290 0 290 0 0 45
0 45 375 0 375 0 0 40 0 40 125 0 125 0 0 40 0 40 125 0 125 0 0 45 0 45 85 0
85 0 0 40 0 40 85 0 85 0 0 40 0 40 80 0 80 0 0 45 0 45 45 0 45 0 0 40 0 40
40 0 40 0 0 40 0 40 40 0 40 0 0 45 0 45 45 0 45 0 0 40 0 40 40 0 40 0 0 85
0 85 40 0 40 0 0 40 0 40 45 0 45 0 0 85 0 85 40 0 40 0 0 80 0 80 40 0 40 0
0 125 0 125 45 0 45 0 0 125 0 125 40 0 40 0 0 210 0 210 40 0 40 0 0 290 0
290 45 0 45 0 0 460 0 460 40 0 40 0 0 540 0 540 40 0 40 0 0 670 0 670 45 0
45 0 0 685 0 685 -457 0 c-252 0 -515 3 -585 7 l-128 6 0 184 0 183 40 0 c33
0 40 3 40 20 0 19 7 20 125 20 118 0 125 1 125 20 0 17 7 20 45 20 l45 0 0 40
0 40 80 0 80 0 0 45 0 45 85 0 85 0 0 40 0 40 250 0 250 0 0 40 0 40 665 0
665 0 0 45 0 45 165 0 165 0 0 40 0 40 85 0 85 0 0 40 0 40 40 0 40 0 0 45 0
45 45 0 45 0 0 40 0 40 40 0 40 0 0 40 0 40 40 0 40 0 0 85 0 85 45 0 45 0 0
125 0 125 40 0 40 0 0 4960 0 4960 -40 0 -40 0 0 125 0 125 -45 0 -45 0 0 80
0 80 -40 0 -40 0 0 45 0 45 -40 0 -40 0 0 40 0 40 -45 0 -45 0 0 40 0 40 -40
0 -40 0 0 45 0 45 -125 0 -125 0 0 40 0 40 -40 0 -40 0 0 -5004 c0 -5512 5
-5086 -61 -5257 -93 -242 -318 -439 -575 -504 l-97 -25 -968 0 -969 0 0 203 0
204 257 6 c141 4 404 7 585 7 l328 0 0 2395 0 2395 -40 0 -40 0 0 1165 0 1165
-45 0 -45 0 0 790 0 790 -40 0 -40 0 0 545 0 545 40 0 40 0 0 125 0 125 45 0
45 0 0 40 0 40 40 0 40 0 0 40 0 40 40 0 40 0 0 45 0 45 125 0 125 0 0 40 0
40 170 0 170 0 0 40 0 40 201 0 202 0 -7 42 c-10 63 -73 173 -126 221 -26 23
-73 56 -106 72 l-59 30 -490 6 c-269 4 -707 7 -972 8 l-483 1 0 60 0 60 45 0
45 0 0 45 0 45 40 0 40 0 0 40 0 40 40 0 40 0 0 40 0 40 85 0 c76 0 85 2 85
18 0 18 16 19 248 25 136 4 379 7 540 7 285 0 292 0 292 20 0 20 7 20 420 20
l420 0 0 40 0 40 205 0 205 0 0 40 0 40 85 0 85 0 0 45 0 45 85 0 85 0 0 40 0
40 80 0 80 0 0 40 0 40 45 0 45 0 0 45 0 45 40 0 40 0 0 40 0 40 40 0 40 0 0
40 0 40 40 0 40 0 0 45 0 45 45 0 45 0 0 125 0 125 40 0 40 0 0 80 0 80 39 0
39 0 7 170 7 170 39 0 39 0 0 915 0 915 -39 0 -39 0 -7 250 -7 250 -39 0 -39
0 0 210 0 210 -40 0 -40 0 0 250 0 250 -45 0 -45 0 0 290 0 290 -40 0 -40 0 0
2915 0 2915 -40 0 -40 0 0 125 0 125 -45 0 -45 0 0 85 0 85 -40 0 -40 0 0 40
0 40 -40 0 -40 0 0 45 0 45 -45 0 -45 0 0 40 0 40 -80 0 -80 0 0 40 0 40 -125
0 -125 0 0 -3473 c0 -1911 -3 -3616 -7 -3790 l-6 -317 -159 0 -158 0 0 40 0
40 -45 0 -45 0 0 585 0 585 -274 0 -274 0 -7 180 c-4 99 -11 180 -15 180 -4 0
-160 -22 -346 -50 -1986 -290 -3499 -447 -4934 -510 -335 -15 -1220 -24 -1452
-15 l-198 7 0 2894 0 2894 -40 0 -40 0 0 125 0 125 -45 0 -45 0 0 85 0 85 -40
0 -40 0 0 40 0 40 -40 0 -40 0 0 45 0 45 -45 0 -45 0 0 40 0 40 -80 0 -80 0 0
40 0 40 -125 0 -125 0 0 -3256 0 -3255 -52 5 c-29 3 -100 8 -158 11 -58 3
-165 11 -237 17 l-133 11 0 28 0 29 -357 0 c-197 0 -422 5 -500 12 l-143 12 0
28 0 29 -267 -2 c-252 -1 -287 1 -578 35 -610 72 -1175 148 -1742 233 -180 26
-253 41 -253 50 0 10 -53 13 -250 13 l-250 0 0 45 0 45 -250 0 -250 0 0 -45 0
-45 -279 0 -278 0 -6 38 c-3 20 -16 127 -28 237 -12 110 -25 204 -29 208 -4 5
-270 -57 -591 -138 -471 -118 -1063 -259 -1256 -300 l-33 -7 0 2606 0 2606
-40 0 -40 0 0 125 0 125 -45 0 -45 0 0 85 0 85 -40 0 -40 0 0 40 0 40 -40 0
-40 0 0 45 0 45 -45 0 -45 0 0 40 0 40 -80 0 -80 0 0 40 0 40 -125 0 -125 0 0
-3075 c0 -1691 -4 -3075 -8 -3075 -5 0 -94 -18 -198 -39 -569 -119 -1445 -284
-2094 -395 -884 -152 -2188 -337 -2887 -412 l-63 -7 0 47 0 46 -40 0 -40 0 0
40 0 40 -45 0 -45 0 0 40 0 40 -40 0 -40 0 0 45 0 45 -40 0 -40 0 0 40 0 40
-45 0 -45 0 0 40 0 40 -40 0 -40 0 0 45 0 45 -40 0 -40 0 0 40 0 40 -85 0 -85
0 0 40 0 40 -40 0 -40 0 0 45 0 45 -125 0 -125 0 0 40 0 40 -125 0 -125 0 0
40 0 40 -250 0 -250 0 0 -368 c0 -203 -3 -484 -7 -625 l-6 -257 -204 0 -203 0
0 103 c0 56 -3 132 -7 170 l-6 67 -38 0 c-39 0 -39 0 -39 40 l0 40 -40 0 -40
0 0 40 0 40 -40 0 -40 0 0 125 0 125 -45 0 -45 0 0 210 0 210 -40 0 -40 0 0
2665 0 2665 -40 0 -40 0 0 125 0 125 -45 0 -45 0 0 85 0 85 -40 0 -40 0 0 40
0 40 -40 0 -40 0 0 45 0 45 -45 0 -45 0 0 40 0 40 -80 0 -80 0 0 40 0 40 -125
0 -125 0 0 -2810z m189 -3232 c57 -183 660 -2393 654 -2398 -4 -4 -71 -26
-148 -50 -739 -223 -1609 -617 -2210 -1000 -713 -454 -1235 -981 -1521 -1534
-191 -370 -276 -689 -291 -1086 -16 -450 73 -843 286 -1267 202 -404 482 -765
976 -1259 269 -269 347 -342 950 -889 593 -537 1000 -934 1285 -1250 1140
-1264 1669 -2496 1740 -4056 44 -959 -206 -2002 -730 -3049 -961 -1920 -2835
-3871 -5415 -5637 -277 -190 -654 -435 -671 -437 -12 -1 -1344 1845 -1344
1863 0 5 6 11 13 14 22 9 543 384 789 569 1029 772 1869 1496 2643 2279 418
423 677 710 980 1089 807 1007 1249 1901 1356 2745 17 130 17 544 0 705 -86
846 -432 1589 -1102 2370 -170 198 -644 673 -909 911 -113 101 -428 376 -700
610 -771 663 -1037 905 -1338 1214 -636 652 -1015 1223 -1228 1850 -411 1207
-338 2378 217 3486 265 531 622 1004 1140 1514 374 368 776 697 1274 1042 735
510 1686 1024 2650 1433 201 86 615 249 632 250 6 0 16 -15 22 -32z m10915
-40 c32 -226 285 -2453 279 -2459 -11 -9 -434 -120 -833 -218 -827 -203 -1814
-412 -2825 -597 -414 -76 -1187 -207 -1412 -240 -67 -9 -127 -20 -132 -24 -6
-3 21 -99 65 -235 564 -1719 990 -4322 1198 -7308 13 -186 26 -341 30 -344 3
-3 844 91 1868 210 1025 118 1865 213 1867 211 6 -5 204 -2444 199 -2448 -1
-2 -844 -102 -1871 -222 -1028 -121 -1873 -222 -1879 -225 -6 -4 -2 -113 11
-310 111 -1626 157 -3104 148 -4721 -5 -919 -10 -1122 -40 -1745 -7 -134 -8
-243 -4 -243 4 0 110 22 235 49 938 204 1778 309 2967 372 325 17 1439 23
1810 10 361 -13 752 -33 1055 -56 191 -14 673 -56 677 -59 0 0 -28 -552 -63
-1226 -35 -674 -64 -1230 -64 -1235 0 -7 -85 -3 -242 12 -883 82 -1526 117
-2168 117 -580 0 -984 -23 -1625 -94 -1644 -183 -3457 -583 -5000 -1103 -137
-47 -252 -83 -254 -81 -2 2 4 230 13 506 57 1747 81 2838 96 4403 13 1316 -2
2954 -35 3885 -65 1842 -142 2804 -346 4340 -347 2619 -958 5892 -1735 9298
-47 206 -84 375 -82 377 2 2 156 19 343 40 2360 255 5077 743 7440 1335 149
37 277 68 286 69 12 1 18 -11 23 -41z m13756 -446 c0 -110 38 -2068 45 -2288
l6 -200 -218 -32 c-1280 -189 -2594 -339 -3703 -425 l-285 -22 3 -35 c1 -19
20 -269 42 -555 275 -3612 400 -6685 400 -9810 0 -2893 -109 -5464 -340 -8025
-57 -630 -145 -1479 -155 -1488 -5 -5 -2527 86 -2532 92 -2 1 8 122 22 267
213 2255 360 4627 425 6879 48 1657 52 3726 10 5305 -57 2122 -166 4060 -356
6315 -62 747 -99 1138 -106 1145 -3 4 -161 17 -350 30 -377 27 -448 32 -938
76 -857 76 -1958 196 -3010 329 -173 22 -330 42 -347 45 l-33 6 0 1204 c0 663
3 1205 8 1205 4 0 165 -22 357 -50 1557 -220 3059 -355 4460 -401 390 -13
1445 -7 1795 10 1421 70 2870 216 4550 460 276 40 250 44 250 -37z m-21664
-3788 c4 -14 23 -106 44 -205 l37 -179 -349 0 c-341 0 -348 0 -348 20 0 17 7
20 45 20 l45 0 0 40 0 40 40 0 40 0 0 40 0 40 40 0 40 0 0 45 0 45 45 0 45 0
0 40 0 40 40 0 c33 0 40 3 40 20 0 19 7 20 95 20 93 0 95 0 101 -26z m10884
-54 l0 -40 85 0 85 0 0 -45 0 -45 40 0 40 0 0 -40 0 -40 45 0 45 0 0 -40 0
-40 80 0 c73 0 80 -2 80 -20 0 -20 -7 -20 -665 -20 -658 0 -665 0 -665 20 0
18 7 20 85 20 l85 0 0 40 0 40 40 0 40 0 0 40 0 40 85 0 85 0 0 45 0 45 80 0
80 0 0 40 0 40 125 0 125 0 0 -40z m-12168 -1002 l1 -43 4 43 c4 42 4 42 44
42 39 0 39 0 39 -40 l0 -40 80 0 80 0 2 -47 2 -48 3 48 4 47 40 0 39 0 0 -45
0 -45 165 0 165 0 0 -40 0 -40 210 0 210 0 0 -40 0 -40 235 0 235 0 5 -22 c12
-53 135 -677 135 -687 0 -7 -45 -11 -140 -11 -118 0 -140 -2 -140 -15 0 -11
12 -15 45 -15 l45 0 0 -125 0 -125 40 0 40 0 0 -210 0 -210 40 0 40 0 0 -210
0 -210 45 0 45 0 0 -205 0 -205 40 0 40 0 0 -210 0 -210 40 0 40 0 0 -210 0
-210 45 0 45 0 0 -250 0 -250 40 0 40 0 0 -205 0 -205 40 0 40 0 0 -250 0
-250 45 0 45 0 0 -250 0 -250 40 0 40 0 0 -625 0 -625 -125 0 -125 0 0 40 0
40 -40 0 -40 0 0 40 0 40 -45 0 -45 0 0 45 0 45 -40 0 -40 0 0 40 0 40 -40 0
-40 0 0 40 0 40 -45 0 -45 0 0 45 0 45 -40 0 -40 0 0 40 0 40 -40 0 -40 0 0
40 0 40 -45 0 -45 0 0 45 0 45 -40 0 -40 0 0 40 0 40 -40 0 -40 0 0 40 0 40
-45 0 -45 0 0 45 0 45 -40 0 -40 0 0 40 0 40 -40 0 -40 0 0 40 0 40 -45 0 -45
0 0 45 0 45 -40 0 -40 0 0 40 0 40 -40 0 -40 0 0 40 0 40 -45 0 -45 0 0 45 0
45 -40 0 -40 0 0 40 0 40 -40 0 -40 0 0 40 0 40 -45 0 -45 0 0 45 0 45 -40 0
-40 0 0 40 0 40 -40 0 -40 0 0 40 0 40 -45 0 -45 0 0 45 0 45 -40 0 -40 0 0
40 0 40 -40 0 -40 0 0 40 0 40 -45 0 -45 0 0 45 0 45 -40 0 -40 0 0 40 0 40
-40 0 -40 0 0 -433 c0 -239 -3 -576 -7 -750 l-6 -317 -39 0 c-38 0 -38 0 -38
40 l0 40 -40 0 -40 0 0 45 0 45 -40 0 -40 0 0 40 0 40 -85 0 -85 0 0 189 c0
103 -3 216 -6 250 -7 61 -7 61 -40 61 l-32 0 -7 85 -7 85 -39 0 -39 0 0 165 0
165 -40 0 -40 0 0 165 0 165 -39 0 -38 0 -6 68 c-4 37 -7 205 -7 375 l0 307
-40 0 -40 0 0 585 0 585 -40 0 -40 0 0 165 0 165 -45 0 -45 0 0 45 0 45 -40 0
-40 0 0 80 0 80 -40 0 -40 0 0 45 0 45 -39 0 -39 0 -7 80 -7 80 -39 0 -39 0 0
45 0 45 -40 0 -40 0 0 205 0 205 40 0 40 0 0 45 0 45 45 0 45 0 0 40 0 40 40
0 40 0 0 40 0 40 85 0 85 0 0 45 0 45 40 0 40 0 0 40 0 40 85 0 85 0 0 40 0
40 40 0 40 0 0 45 0 45 85 0 85 0 0 40 0 40 80 0 80 0 0 40 0 40 45 0 45 0 0
45 0 45 125 0 125 0 0 40 0 40 120 0 120 0 2 -42z m9168 -333 l0 -45 960 0
960 0 0 45 0 45 710 0 710 0 0 -45 0 -45 415 0 415 0 0 -40 0 -40 460 0 460 0
0 -40 0 -40 869 0 868 0 7 -77 c7 -88 51 -729 62 -900 l7 -113 -37 0 -36 0 0
45 0 45 -125 0 -125 0 0 40 0 40 -80 0 -80 0 0 -5004 c0 -5512 5 -5086 -61
-5257 -93 -242 -318 -439 -575 -504 l-96 -25 -3022 0 c-1905 0 -3041 3 -3073
9 -59 12 -164 46 -208 68 -43 23 -134 86 -177 125 -37 33 -38 36 -38 101 l0
67 40 0 40 0 0 125 0 125 45 0 45 0 0 51 0 52 35 -70 c43 -87 112 -153 203
-196 l67 -32 848 -3 c844 -2 847 -2 847 18 0 19 6 20 205 20 l205 0 0 40 0 40
170 0 170 0 0 40 0 40 125 0 125 0 0 45 0 45 80 0 80 0 0 40 0 40 85 0 85 0 0
40 0 40 85 0 85 0 0 45 0 45 40 0 40 0 0 40 0 40 40 0 40 0 0 40 0 40 45 0 45
0 0 45 0 45 40 0 40 0 0 40 0 40 40 0 40 0 0 40 0 40 45 0 45 0 0 45 0 45 40
0 40 0 0 80 0 80 40 0 40 0 0 85 0 85 45 0 45 0 0 85 0 85 40 0 40 0 0 125 0
125 40 0 40 0 0 205 0 205 45 0 45 0 0 710 0 710 -45 0 -45 0 0 250 0 250 -40
0 -40 0 0 210 0 210 -40 0 -40 0 0 125 0 125 -45 0 -45 0 0 80 0 80 -40 0 -40
0 0 85 0 85 -40 0 -40 0 0 85 0 85 -45 0 -45 0 0 40 0 40 -40 0 -40 0 0 40 0
40 -40 0 -40 0 0 45 0 45 -45 0 -45 0 0 40 0 40 -40 0 -40 0 0 40 0 40 -40 0
-40 0 0 45 0 45 -45 0 -45 0 0 40 0 40 -80 0 -80 0 0 40 0 40 -85 0 -85 0 0
45 0 45 -85 0 -85 0 0 40 0 40 -125 0 -125 0 0 40 0 40 -250 0 -250 0 0 45 0
45 -478 0 -479 0 -11 147 c-7 81 -14 148 -16 150 -1 2 -135 -12 -297 -31 -176
-21 -295 -31 -297 -26 -2 6 -21 10 -43 10 l-39 0 0 125 0 125 -45 0 -45 0 0
165 0 165 -40 0 -40 0 0 290 0 290 -40 0 -40 0 0 295 0 295 -45 0 -45 0 0 290
0 290 -40 0 -40 0 0 250 0 250 -40 0 -40 0 0 -1460 c0 -1384 -1 -1460 -17
-1460 -10 0 -107 -11 -215 -24 l-198 -22 0 193 0 193 -33 0 -34 0 -6 437 c-4
240 -7 521 -7 625 l0 188 -40 0 -40 0 0 625 0 625 -40 0 -40 0 0 250 0 250
-39 0 -38 0 -7 61 c-3 34 -6 91 -6 125 l0 64 -40 0 -40 0 0 125 0 125 -40 0
-40 0 0 80 0 80 -38 0 -39 0 -6 176 c-3 96 -3 229 0 295 l6 119 39 0 c38 0 38
0 38 40 l0 40 40 0 40 0 0 40 0 40 85 0 85 0 0 45 0 45 40 0 40 0 0 40 0 40
85 0 85 0 0 40 0 40 125 0 125 0 0 45 0 45 415 0 415 0 0 -45z m-11107 -895
c21 -73 21 -98 25 -860 2 -432 1 -1047 -3 -1367 l-7 -583 -34 0 c-33 0 -34 1
-34 40 l0 40 -45 0 -45 0 0 40 0 40 -40 0 -40 0 0 85 0 85 -40 0 -40 0 0 40 0
40 -45 0 -45 0 0 1085 0 1085 45 0 45 0 0 40 0 40 40 0 40 0 0 45 0 45 40 0
40 0 0 80 0 80 45 0 c40 0 45 3 46 23 0 18 3 16 16 -13 8 -19 25 -69 36 -110z
m4817 -10810 l0 -210 -270 0 -270 0 0 145 0 145 40 0 40 0 0 60 0 60 173 3
c94 1 198 4 230 5 l57 2 0 -210z m0 -1565 l0 -315 -412 0 c-227 0 -443 3 -480
7 l-68 6 0 98 0 99 45 0 45 0 0 99 0 98 61 7 c34 3 109 6 165 6 97 0 104 1
104 20 0 18 7 20 85 20 l85 0 0 40 0 40 80 0 80 0 0 45 0 45 105 0 105 0 0
-315z"/>
<path d="M12495 26025 l-40 -13 78 -1 c62 -1 77 2 77 14 0 19 -58 19 -115 0z"/>
<path d="M12399 25982 c-24 -16 -50 -36 -58 -45 -12 -16 -8 -17 48 -17 l61 0
0 45 c0 25 -1 45 -3 45 -2 0 -23 -13 -48 -28z"/>
<path d="M12266 25855 c-3 -8 -1 -15 4 -15 6 0 10 7 10 15 0 8 -2 15 -4 15 -2
0 -6 -7 -10 -15z"/>
<path d="M21218 26016 c-84 -35 -147 -84 -195 -154 -64 -94 -73 -136 -73 -344
l0 -178 40 0 40 0 0 40 0 40 40 0 40 0 0 45 0 45 45 0 45 0 0 40 0 40 40 0 40
0 0 40 0 40 125 0 125 0 0 45 0 45 125 0 125 0 0 40 0 40 210 0 210 0 0 40 0
40 165 0 165 0 0 45 0 45 165 0 c140 0 165 2 165 15 0 13 -95 15 -792 15
l-793 0 -57 -24z"/>
<path d="M25360 26025 c0 -13 20 -15 125 -15 l125 0 0 -45 0 -45 170 0 170 0
0 -40 0 -40 250 0 250 0 0 -40 0 -40 290 0 290 0 0 -45 0 -45 286 0 287 0 -7
42 c-10 63 -73 173 -126 221 -26 23 -73 56 -106 72 l-59 30 -972 3 c-865 2
-973 1 -973 -13z"/>
<path d="M36778 7588 c-3 -4757 -4 -5006 -21 -5063 -50 -171 -131 -310 -239
-411 -110 -102 -209 -159 -361 -207 l-72 -22 -2947 -3 -2948 -2 0 -105 0 -105
45 0 45 0 0 -80 0 -80 40 0 40 0 0 -45 0 -45 40 0 40 0 0 -40 0 -40 45 0 45 0
0 -40 0 -40 40 0 40 0 0 -45 0 -45 85 0 85 0 0 -40 0 -40 165 0 165 0 0 -40 0
-40 2750 0 2750 0 0 40 0 40 165 0 165 0 0 40 0 40 85 0 85 0 0 45 0 45 40 0
40 0 0 40 0 40 45 0 45 0 0 40 0 40 40 0 40 0 0 45 0 45 40 0 40 0 0 80 0 80
45 0 45 0 0 125 0 125 40 0 40 0 0 4960 0 4960 -40 0 -40 0 0 125 0 125 -45 0
-45 0 0 85 0 85 -40 0 -40 0 0 40 0 40 -40 0 -40 0 0 40 0 40 -45 0 -45 0 0
45 0 45 -80 0 -80 0 0 40 0 40 -125 0 -125 0 -2 -5002z"/>
</g>
</svg>
