<svg width="465" height="480" xmlns="http://www.w3.org/2000/svg">
  <defs>
		<filter id="letterShadow" x="-30%" y="-30%" width="160%" height="160%">
			<feDropShadow dx="20" dy="20" stdDeviation="10" flood-opacity="0.9"/>
		</filter>
		<filter id="cardShadow" x="-30%" y="-30%" width="160%" height="160%">
			<feDropShadow dx="10" dy="10" stdDeviation="5" flood-opacity="0.6"/>
		</filter>
  </defs>
	<style type="text/css">
		#logoCards {
			fill: #93bee5;
			filter: url(#cardShadow);
			stroke: #ffffff;
			stroke-width: 5pt;
			transform: translate(25px,10px);
		}
		#logoLetters {
			fill: #ffffff;
			filter: url(#letterShadow);
			stroke: #000000;
			stroke-width: 5pt;
			transform: translate(25px,10px);
		}
	</style>
	<g id="logoCards">
		<path d="M325,447.5c-4.1,0-7.5-3.4-7.5-7.5v-120c0-4.1,3.4-7.5,7.5-7.5h70c4.1,0,7.5,3.4,7.5,7.5v120c0,4.1-3.4,7.5-7.5,7.5z"/>
		<path d="M220,447.5c-4.1,0-7.5-3.4-7.5-7.5v-120c0-4.1,3.4-7.5,7.5-7.5h70c4.1,0,7.5,3.4,7.5,7.5v120c0,4.1-3.4,7.5-7.5,7.5z"/>
		<path d="M115,447.5c-4.1,0-7.5-3.4-7.5-7.5v-120c0-4.1,3.4-7.5,7.5-7.5h70c4.1,0,7.5,3.4,7.5,7.5v120c0,4.1-3.4,7.5-7.5,7.5z"/>
		<path d="M10,447.5c-4.1,0-7.5-3.4-7.5-7.5v-120c0-4.1,3.4-7.5,7.5-7.5h70c4.1,0,7.5,3.4,7.5,7.5v120c0,4.1-3.4,7.5-7.5,7.5z"/>
		<path d="M325,292.5c-4.1,0-7.5-3.4-7.5-7.5v-120c0-4.1,3.4-7.5,7.5-7.5h70c4.1,0,7.5,3.4,7.5,7.5v120c0,4.1-3.4,7.5-7.5,7.5z"/>
		<path d="M220,292.5c-4.1,0-7.5-3.4-7.5-7.5v-120c0-4.1,3.4-7.5,7.5-7.5h70c4.1,0,7.5,3.4,7.5,7.5v120c0,4.1-3.4,7.5-7.5,7.5z"/>
		<path d="M115,292.5c-4.1,0-7.5-3.4-7.5-7.5v-120c0-4.1,3.4-7.5,7.5-7.5h70c4.1,0,7.5,3.4,7.5,7.5v120c0,4.1-3.4,7.5-7.5,7.5z"/>
		<path d="M10,292.5c-4.1,0-7.5-3.4-7.5-7.5v-120c0-4.1,3.4-7.5,7.5-7.5h70c4.1,0,7.5,3.4,7.5,7.5v120c0,4.1-3.4,7.5-7.5,7.5z"/>
		<path d="M325,137.5c-4.1,0-7.5-3.4-7.5-7.5v-120c0-4.1,3.4-7.5,7.5-7.5h70c4.1,0,7.5,3.4,7.5,7.5v120c0,4.1-3.4,7.5-7.5,7.5z"/>
		<path d="M220,137.5c-4.1,0-7.5-3.4-7.5-7.5v-120c0-4.1,3.4-7.5,7.5-7.5h70c4.1,0,7.5,3.4,7.5,7.5v120c0,4.1-3.4,7.5-7.5,7.5z"/>
		<path d="M115,137.5c-4.1,0-7.5-3.4-7.5-7.5v-120c0-4.1,3.4-7.5,7.5-7.5h70c4.1,0,7.5,3.4,7.5,7.5v120c0,4.1-3.4,7.5-7.5,7.5z"/>
		<path d="M10,137.5c-4.1,0-7.5-3.4-7.5-7.5v-120c0-4.1,3.4-7.5,7.5-7.5h70c4.1,0,7.5,3.4,7.5,7.5v120c0,4.1-3.4,7.5-7.5,7.5z"/>
	</g>
	<g id="logoLetters">
		<path d="M11.4,348c0,0,70.5-46.4,70.7-83.4c0.1-22.2-15.7-35.7-32.4-50c-12.8-11-26.1-22.3-31.2-37.9c-5-15.3-3.9-30,3.1-43.7c17.8-34.8,72.3-52.7,72.3-52.7l9.5,34.3c0,0-50.5,12.5-50.8,43c-0.2,14.9,11.3,25.3,24.6,37.3c17.3,15.7,37,33.4,38.3,66.7c1,25-13.1,52.3-40.8,78.9c-20.7,19.9-44.3,34-44.3,34z"/>
		<path d="M148.6,378.8c0-7.1,4.2-96-1.4-146.9c-6.2-56.8-22.9-127.2-24.2-132.8l0,0l0,0c33-3.2,67.6-9.4,102.4-18.3l0,0l4.1,35.1l0,0c-23.6,6.7-53,11.7-62.1,13.1c2.9,8.7,11,36.4,14.6,89.9l44.9-5.2l2.8,34.5l-45.2,5.3c0.7,9.8,3,47.8,1.4,78.9c14.5-3.2,31-4.7,49-4.7c17.2,0,32,1.8,32,1.8l-1.8,34.7l0,0c-10.3-1.1-22.4-2-31.8-2c-21.6,0,-56.8,6.2,-84.7,16.6z"/>
		<path d="M304.7,365.8c9.8-100.3,6.3-175.6,0.5-239.1c-24.9-1.6-56.4-5.9-56.4-5.9l0,0v-34.1l0,0c25,3.8,48.8,5.9,68.6,6c23.6,0,48.1-2.9,73.4-6.6l0,0l0.7,35.8l0,0c0,0-25.7,4.1-50.3,5.9c5.6,70.7,8.5,156.2-1,239.3l0,0z"/>
	</g>
</svg>