<svg width="415" height="460" xmlns="http://www.w3.org/2000/svg" viewbox="0 0 415 460">
  <defs>
    <filter id="ds" x="0" y="0" width="200%" height="200%">
			<feGaussianBlur in="SourceAlpha" result="blurred" stdDeviation="10"/>
			<feOffset dx="20" dy="20" in="blurred" result="shifted"/>
			<feComponentTransfer in="shifted" result="dimmed">
				<feFuncA type="linear" slope="0.9"/>
			</feComponentTransfer>
			<feMerge> 
				<feMergeNode in="dimmed"/>
				<feMergeNode in="SourceGraphic"/> 
			</feMerge>
    </filter>
    <filter id="dsc" x="0" y="0" width="200%" height="200%">
			<feGaussianBlur in="SourceAlpha" stdDeviation="5"/>
			<feOffset dx="10" dy="10"/>
			<feComponentTransfer>
				<feFuncA type="linear" slope="0.5"/>
			</feComponentTransfer>
			<feMerge> 
				<feMergeNode/>
				<feMergeNode in="SourceGraphic"/> 
			</feMerge>
    </filter>
  </defs>
	<style type="text/css">
		.st0{fill:#93BEE5;}
		.st1{fill:#FFFFFF;}
	</style>
	<g>
		<g id="svg_1" filter="url(#dsc)">
		<g id="svg_2">
		<g id="svg_3">
		<path id="svg_4" d="m10.262075,137.409322c-4.1,0 -7.5,-3.4 -7.5,-7.5l0,-120c0,-4.1 3.4,-7.5 7.5,-7.5l70,0c4.1,0 7.5,3.4 7.5,7.5l0,120c0,4.1 -3.4,7.5 -7.5,7.5l-70,0z" class="st0"/>
		<path id="svg_5" d="m80.262075,4.909322c2.8,0 5,2.2 5,5l0,120c0,2.8 -2.2,5 -5,5l-70,0c-2.8,0 -5,-2.2 -5,-5l0,-120c0,-2.8 2.2,-5 5,-5l70,0m0,-5l-70,0c-5.5,0 -10,4.5 -10,10l0,120c0,5.5 4.5,10 10,10l70,0c5.5,0 10,-4.5 10,-10l0,-120c0,-5.5 -4.5,-10 -10,-10l0,0z" class="st1"/>
		</g>
		<g id="svg_6">
		<path id="svg_7" d="m115.262075,137.409322c-4.1,0 -7.5,-3.4 -7.5,-7.5l0,-120c0,-4.1 3.4,-7.5 7.5,-7.5l70,0c4.1,0 7.5,3.4 7.5,7.5l0,120c0,4.1 -3.4,7.5 -7.5,7.5l-70,0z" class="st0"/>
		<path id="svg_8" d="m185.262075,4.909322c2.8,0 5,2.2 5,5l0,120c0,2.8 -2.2,5 -5,5l-70,0c-2.8,0 -5,-2.2 -5,-5l0,-120c0,-2.8 2.2,-5 5,-5l70,0m0,-5l-70,0c-5.5,0 -10,4.5 -10,10l0,120c0,5.5 4.5,10 10,10l70,0c5.5,0 10,-4.5 10,-10l0,-120c0,-5.5 -4.5,-10 -10,-10l0,0z" class="st1"/>
		</g>
		<g id="svg_9">
		<path id="svg_10" d="m220.262075,137.409322c-4.1,0 -7.5,-3.4 -7.5,-7.5l0,-120c0,-4.1 3.4,-7.5 7.5,-7.5l70,0c4.1,0 7.5,3.4 7.5,7.5l0,120c0,4.1 -3.4,7.5 -7.5,7.5l-70,0z" class="st0"/>
		<path id="svg_11" d="m290.262075,4.909322c2.8,0 5,2.2 5,5l0,120c0,2.8 -2.2,5 -5,5l-70,0c-2.8,0 -5,-2.2 -5,-5l0,-120c0,-2.8 2.2,-5 5,-5l70,0m0,-5l-70,0c-5.5,0 -10,4.5 -10,10l0,120c0,5.5 4.5,10 10,10l70,0c5.5,0 10,-4.5 10,-10l0,-120c0,-5.5 -4.5,-10 -10,-10l0,0z" class="st1"/>
		</g>
		<g id="svg_12">
		<path id="svg_13" d="m325.262075,137.409322c-4.1,0 -7.5,-3.4 -7.5,-7.5l0,-120c0,-4.1 3.4,-7.5 7.5,-7.5l70,0c4.1,0 7.5,3.4 7.5,7.5l0,120c0,4.1 -3.4,7.5 -7.5,7.5l-70,0z" class="st0"/>
		<path id="svg_14" d="m395.262075,4.909322c2.8,0 5,2.2 5,5l0,120c0,2.8 -2.2,5 -5,5l-70,0c-2.8,0 -5,-2.2 -5,-5l0,-120c0,-2.8 2.2,-5 5,-5l70,0m0,-5l-70,0c-5.5,0 -10,4.5 -10,10l0,120c0,5.5 4.5,10 10,10l70,0c5.5,0 10,-4.5 10,-10l0,-120c0,-5.5 -4.5,-10 -10,-10l0,0z" class="st1"/>
		</g>
		<g id="svg_15">
		<path id="svg_16" d="m10.262075,292.409322c-4.1,0 -7.5,-3.4 -7.5,-7.5l0,-120c0,-4.1 3.4,-7.5 7.5,-7.5l70,0c4.1,0 7.5,3.4 7.5,7.5l0,120c0,4.1 -3.4,7.5 -7.5,7.5l-70,0z" class="st0"/>
		<path id="svg_17" d="m80.262075,159.909322c2.8,0 5,2.2 5,5l0,120c0,2.8 -2.2,5 -5,5l-70,0c-2.8,0 -5,-2.2 -5,-5l0,-120c0,-2.8 2.2,-5 5,-5l70,0m0,-5l-70,0c-5.5,0 -10,4.5 -10,10l0,120c0,5.5 4.5,10 10,10l70,0c5.5,0 10,-4.5 10,-10l0,-120c0,-5.5 -4.5,-10 -10,-10l0,0z" class="st1"/>
		</g>
		<g id="svg_18">
		<path id="svg_19" d="m115.262075,292.409322c-4.1,0 -7.5,-3.4 -7.5,-7.5l0,-120c0,-4.1 3.4,-7.5 7.5,-7.5l70,0c4.1,0 7.5,3.4 7.5,7.5l0,120c0,4.1 -3.4,7.5 -7.5,7.5l-70,0z" class="st0"/>
		<path id="svg_20" d="m185.262075,159.909322c2.8,0 5,2.2 5,5l0,120c0,2.8 -2.2,5 -5,5l-70,0c-2.8,0 -5,-2.2 -5,-5l0,-120c0,-2.8 2.2,-5 5,-5l70,0m0,-5l-70,0c-5.5,0 -10,4.5 -10,10l0,120c0,5.5 4.5,10 10,10l70,0c5.5,0 10,-4.5 10,-10l0,-120c0,-5.5 -4.5,-10 -10,-10l0,0z" class="st1"/>
		</g>
		<g id="svg_21">
		<path id="svg_22" d="m220.262075,292.409322c-4.1,0 -7.5,-3.4 -7.5,-7.5l0,-120c0,-4.1 3.4,-7.5 7.5,-7.5l70,0c4.1,0 7.5,3.4 7.5,7.5l0,120c0,4.1 -3.4,7.5 -7.5,7.5l-70,0z" class="st0"/>
		<path id="svg_23" d="m290.262075,159.909322c2.8,0 5,2.2 5,5l0,120c0,2.8 -2.2,5 -5,5l-70,0c-2.8,0 -5,-2.2 -5,-5l0,-120c0,-2.8 2.2,-5 5,-5l70,0m0,-5l-70,0c-5.5,0 -10,4.5 -10,10l0,120c0,5.5 4.5,10 10,10l70,0c5.5,0 10,-4.5 10,-10l0,-120c0,-5.5 -4.5,-10 -10,-10l0,0z" class="st1"/>
		</g>
		<g id="svg_24">
		<path id="svg_25" d="m325.262075,292.409322c-4.1,0 -7.5,-3.4 -7.5,-7.5l0,-120c0,-4.1 3.4,-7.5 7.5,-7.5l70,0c4.1,0 7.5,3.4 7.5,7.5l0,120c0,4.1 -3.4,7.5 -7.5,7.5l-70,0z" class="st0"/>
		<path id="svg_26" d="m395.262075,159.909322c2.8,0 5,2.2 5,5l0,120c0,2.8 -2.2,5 -5,5l-70,0c-2.8,0 -5,-2.2 -5,-5l0,-120c0,-2.8 2.2,-5 5,-5l70,0m0,-5l-70,0c-5.5,0 -10,4.5 -10,10l0,120c0,5.5 4.5,10 10,10l70,0c5.5,0 10,-4.5 10,-10l0,-120c0,-5.5 -4.5,-10 -10,-10l0,0z" class="st1"/>
		</g>
		<g id="svg_27">
		<path id="svg_28" d="m10.262075,447.409322c-4.1,0 -7.5,-3.4 -7.5,-7.5l0,-120c0,-4.1 3.4,-7.5 7.5,-7.5l70,0c4.1,0 7.5,3.4 7.5,7.5l0,120c0,4.1 -3.4,7.5 -7.5,7.5l-70,0z" class="st0"/>
		<path id="svg_29" d="m80.262075,314.909322c2.8,0 5,2.2 5,5l0,120c0,2.8 -2.2,5 -5,5l-70,0c-2.8,0 -5,-2.2 -5,-5l0,-120c0,-2.8 2.2,-5 5,-5l70,0m0,-5l-70,0c-5.5,0 -10,4.5 -10,10l0,120c0,5.5 4.5,10 10,10l70,0c5.5,0 10,-4.5 10,-10l0,-120c0,-5.5 -4.5,-10 -10,-10l0,0z" class="st1"/>
		</g>
		<g id="svg_30">
		<path id="svg_31" d="m115.262075,447.409322c-4.1,0 -7.5,-3.4 -7.5,-7.5l0,-120c0,-4.1 3.4,-7.5 7.5,-7.5l70,0c4.1,0 7.5,3.4 7.5,7.5l0,120c0,4.1 -3.4,7.5 -7.5,7.5l-70,0z" class="st0"/>
		<path id="svg_32" d="m185.262075,314.909322c2.8,0 5,2.2 5,5l0,120c0,2.8 -2.2,5 -5,5l-70,0c-2.8,0 -5,-2.2 -5,-5l0,-120c0,-2.8 2.2,-5 5,-5l70,0m0,-5l-70,0c-5.5,0 -10,4.5 -10,10l0,120c0,5.5 4.5,10 10,10l70,0c5.5,0 10,-4.5 10,-10l0,-120c0,-5.5 -4.5,-10 -10,-10l0,0z" class="st1"/>
		</g>
		<g id="svg_33">
		<path id="svg_34" d="m220.262075,447.409322c-4.1,0 -7.5,-3.4 -7.5,-7.5l0,-120c0,-4.1 3.4,-7.5 7.5,-7.5l70,0c4.1,0 7.5,3.4 7.5,7.5l0,120c0,4.1 -3.4,7.5 -7.5,7.5l-70,0z" class="st0"/>
		<path id="svg_35" d="m290.262075,314.909322c2.8,0 5,2.2 5,5l0,120c0,2.8 -2.2,5 -5,5l-70,0c-2.8,0 -5,-2.2 -5,-5l0,-120c0,-2.8 2.2,-5 5,-5l70,0m0,-5l-70,0c-5.5,0 -10,4.5 -10,10l0,120c0,5.5 4.5,10 10,10l70,0c5.5,0 10,-4.5 10,-10l0,-120c0,-5.5 -4.5,-10 -10,-10l0,0z" class="st1"/>
		</g>
		<g id="svg_36">
		<path id="svg_37" d="m325.262075,447.409322c-4.1,0 -7.5,-3.4 -7.5,-7.5l0,-120c0,-4.1 3.4,-7.5 7.5,-7.5l70,0c4.1,0 7.5,3.4 7.5,7.5l0,120c0,4.1 -3.4,7.5 -7.5,7.5l-70,0z" class="st0"/>
		<path id="svg_38" d="m395.262075,314.909322c2.8,0 5,2.2 5,5l0,120c0,2.8 -2.2,5 -5,5l-70,0c-2.8,0 -5,-2.2 -5,-5l0,-120c0,-2.8 2.2,-5 5,-5l70,0m0,-5l-70,0c-5.5,0 -10,4.5 -10,10l0,120c0,5.5 4.5,10 10,10l70,0c5.5,0 10,-4.5 10,-10l0,-120c0,-5.5 -4.5,-10 -10,-10l0,0z" class="st1"/>
		</g>
		</g>
	</g>
	<g id="setLetters" filter="url(#ds)">
		<g id="svg_39">
			<path id="svg_40" d="m11.662075,347.909322l2.2,-1.4c0.7,-0.4 68.3,-45 68.5,-82c0.1,-22.2 -15.7,-35.7 -32.4,-50c-12.8,-11 -26.1,-22.3 -31.2,-37.9c-5,-15.3 -3.9,-30 3.1,-43.7c17.8,-34.8 67.7,-51.2 69.8,-51.9l2.5,-0.8l9.5,34.3l-2.5,0.6c-0.5,0.1 -48,11.9 -48.3,42.4c-0.2,14.9 11.3,25.3 24.6,37.3c17.3,15.7 37,33.4 38.3,66.7c1,25 -13.1,52.3 -40.8,78.9c-20.7,19.9 -42.1,32.7 -42.3,32.8l-2,1.2l-19,-26.5z" class="st1"/>
			<path id="svg_41" d="m92.562075,83.409322l8.2,29.3c0,0 -49.9,12 -50.3,44.8c-0.4,36 60.6,45.9 62.9,104.2c2.4,59.4 -81.9,109.5 -81.9,109.5l-16.2,-22.7c0,0 69.4,-45.3 69.7,-84.1c0.3,-41.3 -52.6,-54.5 -63.7,-88.7c-20.4,-62.9 71.3,-92.3 71.3,-92.3m3.4,-6.4l-5,1.6c-2.2,0.7 -52.9,17.4 -71.2,53.1c-7.3,14.3 -8.4,29.7 -3.3,45.6c5.3,16.2 18.8,27.8 31.9,39c16.3,13.9 31.6,27.1 31.5,48.1c-0.1,14.4 -11.6,32.7 -33.2,52.9c-16.9,15.7 -34,26.9 -34.2,27.1l-4.4,2.9l3,4.2l16.2,22.7l2.7,3.7l3.9,-2.3c0.9,-0.5 21.8,-13 42.8,-33.2c12.4,-11.9 22.2,-24 29.1,-36c8.9,-15.3 13,-30.4 12.5,-44.9c-1.4,-34.4 -22.3,-53.3 -39.1,-68.5c-12.9,-11.6 -23.9,-21.6 -23.8,-35.4c0.3,-28.5 46,-39.9 46.4,-40l5,-1.2l-1.4,-5l-8.2,-29.3l-1.2,-5.1l0,0z"/>
		</g>
		<g id="svg_42">
			<path id="svg_43" d="m148.862075,375.209322c0,-7.1 0.4,-15.5 0.9,-25.2c1.4,-28.4 3.3,-67.3 -2.3,-118.2c-6.2,-56.8 -13.4,-86.8 -19.7,-113.3c-1.4,-5.7 -2.6,-11.1 -3.9,-16.7l-0.6,-2.8l2.8,-0.3c33,-3.2 62,-8.4 96.8,-17.3l2.8,-0.7l4.1,35.1l-2,0.6c-23.6,6.7 -51,11.1 -60.1,12.5c2.9,8.7 11,36.4 14.6,89.9l44.9,-5.2l2.8,34.5l-45.2,5.3c0.7,9.8 3,47.8 1.4,78.9c14.5,-3.2 31,-4.7 49,-4.7c17.2,0 29.2,1.5 29.7,1.5l2.3,0.3l-1.8,34.7l-2.6,-0.3c-10.3,-1.1 -19.8,-1.7 -29.2,-1.7c-27.6,0 -53.4,4.9 -81.3,15.3l-3.4,1.3l0,-3.5z" class="st1"/>
			<path id="svg_44" d="m223.562075,83.909322l3.5,30.1c-28.7,8.2 -62.8,12.8 -62.8,12.8s11.4,27.8 15.7,94.8l44.9,-5.2l2.4,29.5l-45.1,5.3c0,0 3.6,47.7 1.4,84.3c18,-4.3 36.8,-5.4 51.7,-5.4c17.2,0 29.4,1.5 29.4,1.5l-1.6,29.8c-9.8,-1.1 -19.6,-1.7 -29.4,-1.7c-25.8,0 -52.2,4.2 -82.2,15.5c0,-27.2 6.1,-74.9 -1.4,-143.7c-7.5,-68.8 -16.4,-98.2 -23.6,-130.2c37.1,-3.7 66.8,-9.7 97.1,-17.4m4.3,-6.2l-5.5,1.4c-34.7,8.8 -63.5,14 -96.4,17.2l-5.6,0.6l1.3,5.5c1.3,5.6 2.6,11 3.9,16.7c6.3,26.4 13.4,56.4 19.6,113c5.5,50.7 3.6,89.5 2.2,117.8c-0.5,9.8 -0.9,18.2 -0.9,25.3l0,7.2l6.8,-2.5c27.6,-10.4 53.2,-15.2 80.4,-15.2c9.2,0 18.7,0.5 28.9,1.7l5.3,0.6l0.3,-5.3l1.6,-29.8l0.2,-4.6l-4.6,-0.6c-0.5,-0.1 -12.7,-1.6 -30,-1.6c-16.9,0 -32.5,1.4 -46.4,4.1c1.2,-28.5 -0.6,-61.5 -1.4,-73.6l40.4,-4.7l4.8,-0.6l-0.4,-4.8l-2.4,-29.5l-0.4,-5.2l-5.1,0.6l-39.7,4.6c-3.4,-47.2 -10.2,-74.1 -13.6,-85.1c11.1,-1.7 35.6,-5.9 57.5,-12.1l4.1,-1.2l-0.5,-4.2l-3.5,-30.1l-0.9,-5.6l0,0z"/>
		</g>
		<g id="svg_45">
			<path id="svg_46" d="m304.962075,365.709322l0.3,-2.6c9.8,-100.3 6,-173 0.2,-236.5c-24.9,-1.6 -53.9,-5.6 -54.2,-5.6l-2.2,-0.3l0,-34.1l2.9,0.4c25,3.8 45.9,5.5 65.7,5.6c23.6,0 45.3,-2.5 70.6,-6.2l2.8,-0.4l0.7,35.8l-2.1,0.3c-0.2,0 -23.6,3.8 -48.2,5.6c0.6,12.6 1.3,24.9 2,36.8c3.5,60.2 6.8,117.1 -2.7,200.2l-0.3,2.3l-35.5,-1.3z" class="st1"/>
			<path id="svg_47" d="m388.662075,88.809322l0.6,30.8c0,0 -24.8,4 -50.5,5.7c3.6,76.1 10.9,138.4 -0.6,239.1l-30.5,-1.1c9.5,-97.6 6.5,-168.6 0,-239.1c-25.5,-1.5 -56.2,-5.7 -56.2,-5.7l0,-29c25.8,3.9 46.6,5.6 66.1,5.6c23.5,-0.1 45,-2.5 71.1,-6.3m4.8,-5.8l-5.6,0.8c-25.2,3.7 -46.8,6.2 -70.3,6.2c-19.7,0 -40.4,-1.8 -65.3,-5.5l-5.7,-0.9l0,5.8l0,29l0,4.4l4.3,0.6c0.3,0 27.8,3.8 52.3,5.5c5.6,62.8 9.3,134.9 -0.4,233.9l-0.5,5.3l5.3,0.2l30.5,1.1l4.6,0.2l0.5,-4.6c9.5,-83.3 6.2,-140.3 2.7,-200.6c-0.6,-11.2 -1.3,-22.7 -1.9,-34.4c23.8,-1.8 45.8,-5.4 46,-5.5l4.3,-0.7l-0.1,-4.3l-0.6,-30.8l-0.1,-5.7l0,0z"/>
		</g>
		</g>
	</g>
</svg>